<svg width="611" height="93" viewBox="0 0 611 93" fill="none" xmlns="http://www.w3.org/2000/svg">
<path d="M121 25.4486L127.787 44.3997L128.11 45.2989L129.061 45.3875L147.153 47.0719L133.209 60.9426L132.635 61.5141L132.798 62.3079L136.987 82.7005L121.868 71.9765L121 71.361L120.132 71.9765L105.013 82.7005L109.202 62.3079L109.365 61.5141L108.791 60.9426L94.8469 47.0719L112.939 45.3875L113.89 45.2989L114.213 44.3997L121 25.4486Z" fill="#2E294E" stroke="#2E294E" stroke-width="3"/>
<path d="M193 21L201.2 43.8939L222.483 45.8754L206.267 62.0061L211.221 86.1246L193 73.2L174.779 86.1246L179.733 62.0061L163.517 45.8754L184.8 43.8939L193 21Z" fill="#2E294E"/>
<mask id="path-3-outside-1_3762_21682" maskUnits="userSpaceOnUse" x="2" y="17" width="566" height="71" fill="black">
<rect fill="white" x="2" y="17" width="566" height="71"/>
<path d="M65.856 79.992L71.616 81.144C72.384 81.336 72.768 81.912 72.768 82.872V87H49.536V82.872C49.536 81.848 50.048 81.24 51.072 81.048L56.448 79.992V55.704H19.392V79.992C24 80.952 26.304 81.912 26.304 82.872V87H3.168V82.872C3.168 81.848 3.648 81.24 4.608 81.048L10.08 79.992V25.176L4.32 24.024C3.552 23.832 3.168 23.256 3.168 22.296V18.264H26.304V22.296C26.304 23.256 25.984 23.832 25.344 24.024C24.64 24.216 22.688 24.6 19.488 25.176V48.888H56.544V25.176L50.784 24.024C50.016 23.832 49.632 23.256 49.632 22.296V18.264H72.864V22.296C72.864 23.32 72.384 23.928 71.424 24.12L65.856 25.176V79.992ZM300.942 81.048C301.39 81.176 301.742 81.4 301.998 81.72C302.254 81.976 302.382 82.328 302.382 82.776V87H292.398C290.734 87 289.518 86.328 288.75 84.984L270.894 60.408C270.446 59.768 269.87 59.224 269.166 58.776C268.59 58.392 267.63 58.2 266.286 58.2H260.142V79.896L265.518 81.048C265.966 81.176 266.318 81.4 266.574 81.72C266.894 81.976 267.054 82.328 267.054 82.776V86.904H243.918V82.776C243.918 82.328 244.046 81.976 244.302 81.72C244.558 81.4 244.91 81.176 245.358 81.048L250.926 79.896V25.176L245.358 24.024C244.91 23.896 244.558 23.704 244.302 23.448C244.046 23.128 243.918 22.744 243.918 22.296V18.072H269.358C273.646 18.072 277.422 18.52 280.686 19.416C283.886 20.312 286.51 21.592 288.558 23.256C290.67 24.984 292.206 27 293.166 29.304C294.126 31.608 294.606 34.264 294.606 37.272C294.606 39.64 294.222 41.88 293.454 43.992C292.686 46.04 291.566 47.96 290.094 49.752C288.622 51.544 286.862 52.984 284.814 54.072C282.254 55.48 279.886 56.408 277.71 56.856C278.862 57.56 279.886 58.52 280.782 59.736L295.662 80.088C298.734 80.6 300.526 80.92 301.038 81.048H300.942ZM268.782 51.48C271.598 51.48 273.998 51.16 275.982 50.52C277.902 49.88 279.63 48.92 281.166 47.64C282.574 46.424 283.63 45.016 284.334 43.416C285.038 41.816 285.39 39.96 285.39 37.848C285.39 33.816 284.046 30.744 281.358 28.632C278.734 26.584 274.734 25.56 269.358 25.56H260.046V51.48H268.782ZM328.858 87V82.872C328.858 82.424 328.986 82.04 329.242 81.72C329.498 81.336 329.85 81.112 330.298 81.048L335.77 79.992V25.176L330.298 24.12C329.85 24.056 329.498 23.864 329.242 23.544C328.986 23.16 328.858 22.744 328.858 22.296V18.264H351.898V22.296C351.898 22.744 351.77 23.16 351.514 23.544C351.258 23.864 350.906 24.056 350.458 24.12L344.986 25.176V79.128H369.754C369.946 76.184 370.138 74.36 370.33 73.656C370.394 73.208 370.618 72.824 371.002 72.504C371.386 72.184 371.834 72.024 372.346 72.024H377.05V87H328.858ZM453.577 34.872H448.969C447.817 34.872 447.145 34.328 446.953 33.24L446.281 25.848H420.553V48.696H445.897V55.992H420.553V79.512H446.281L446.857 72.6C447.049 71.576 447.753 71.064 448.969 71.064H453.577V87H404.233V82.968C404.233 81.944 404.713 81.336 405.673 81.144L411.145 80.088V25.272C408.073 24.696 406.249 24.312 405.673 24.12C404.713 23.928 404.233 23.32 404.233 22.296V18.264H453.577V34.872ZM559.634 25.176V79.896C562.706 80.472 564.53 80.856 565.106 81.048C566.13 81.24 566.642 81.816 566.642 82.776V87H543.602V82.776C543.602 81.816 544.082 81.24 545.042 81.048L551.474 79.896V36.408C551.474 34.424 551.538 32.92 551.666 31.896L528.05 74.904C527.282 76.376 526.194 77.112 524.786 77.112H523.442C521.906 77.112 520.754 76.376 519.986 74.904L496.082 31.992C496.274 33.592 496.37 35.032 496.37 36.312V79.896L502.898 81.048C503.73 81.24 504.146 81.816 504.146 82.776V87H481.202V82.776C481.202 81.816 481.714 81.24 482.738 81.048L488.114 79.896V25.176C485.17 24.6 483.378 24.216 482.738 24.024C481.714 23.832 481.202 23.256 481.202 22.296V18.072H495.026C495.922 18.072 496.562 18.168 496.946 18.36C497.522 18.616 497.938 19.032 498.194 19.608L521.906 62.04C522.482 63.064 523.218 64.728 524.114 67.032C524.626 65.56 525.362 63.864 526.322 61.944L549.554 19.608C549.81 19.096 550.258 18.68 550.898 18.36C551.282 18.168 551.922 18.072 552.818 18.072H566.642V22.296C566.642 23.256 566.13 23.832 565.106 24.024L559.634 25.176Z"/>
</mask>
<path d="M65.856 79.992L71.616 81.144C72.384 81.336 72.768 81.912 72.768 82.872V87H49.536V82.872C49.536 81.848 50.048 81.24 51.072 81.048L56.448 79.992V55.704H19.392V79.992C24 80.952 26.304 81.912 26.304 82.872V87H3.168V82.872C3.168 81.848 3.648 81.24 4.608 81.048L10.08 79.992V25.176L4.32 24.024C3.552 23.832 3.168 23.256 3.168 22.296V18.264H26.304V22.296C26.304 23.256 25.984 23.832 25.344 24.024C24.64 24.216 22.688 24.6 19.488 25.176V48.888H56.544V25.176L50.784 24.024C50.016 23.832 49.632 23.256 49.632 22.296V18.264H72.864V22.296C72.864 23.32 72.384 23.928 71.424 24.12L65.856 25.176V79.992ZM300.942 81.048C301.39 81.176 301.742 81.4 301.998 81.72C302.254 81.976 302.382 82.328 302.382 82.776V87H292.398C290.734 87 289.518 86.328 288.75 84.984L270.894 60.408C270.446 59.768 269.87 59.224 269.166 58.776C268.59 58.392 267.63 58.2 266.286 58.2H260.142V79.896L265.518 81.048C265.966 81.176 266.318 81.4 266.574 81.72C266.894 81.976 267.054 82.328 267.054 82.776V86.904H243.918V82.776C243.918 82.328 244.046 81.976 244.302 81.72C244.558 81.4 244.91 81.176 245.358 81.048L250.926 79.896V25.176L245.358 24.024C244.91 23.896 244.558 23.704 244.302 23.448C244.046 23.128 243.918 22.744 243.918 22.296V18.072H269.358C273.646 18.072 277.422 18.52 280.686 19.416C283.886 20.312 286.51 21.592 288.558 23.256C290.67 24.984 292.206 27 293.166 29.304C294.126 31.608 294.606 34.264 294.606 37.272C294.606 39.64 294.222 41.88 293.454 43.992C292.686 46.04 291.566 47.96 290.094 49.752C288.622 51.544 286.862 52.984 284.814 54.072C282.254 55.48 279.886 56.408 277.71 56.856C278.862 57.56 279.886 58.52 280.782 59.736L295.662 80.088C298.734 80.6 300.526 80.92 301.038 81.048H300.942ZM268.782 51.48C271.598 51.48 273.998 51.16 275.982 50.52C277.902 49.88 279.63 48.92 281.166 47.64C282.574 46.424 283.63 45.016 284.334 43.416C285.038 41.816 285.39 39.96 285.39 37.848C285.39 33.816 284.046 30.744 281.358 28.632C278.734 26.584 274.734 25.56 269.358 25.56H260.046V51.48H268.782ZM328.858 87V82.872C328.858 82.424 328.986 82.04 329.242 81.72C329.498 81.336 329.85 81.112 330.298 81.048L335.77 79.992V25.176L330.298 24.12C329.85 24.056 329.498 23.864 329.242 23.544C328.986 23.16 328.858 22.744 328.858 22.296V18.264H351.898V22.296C351.898 22.744 351.77 23.16 351.514 23.544C351.258 23.864 350.906 24.056 350.458 24.12L344.986 25.176V79.128H369.754C369.946 76.184 370.138 74.36 370.33 73.656C370.394 73.208 370.618 72.824 371.002 72.504C371.386 72.184 371.834 72.024 372.346 72.024H377.05V87H328.858ZM453.577 34.872H448.969C447.817 34.872 447.145 34.328 446.953 33.24L446.281 25.848H420.553V48.696H445.897V55.992H420.553V79.512H446.281L446.857 72.6C447.049 71.576 447.753 71.064 448.969 71.064H453.577V87H404.233V82.968C404.233 81.944 404.713 81.336 405.673 81.144L411.145 80.088V25.272C408.073 24.696 406.249 24.312 405.673 24.12C404.713 23.928 404.233 23.32 404.233 22.296V18.264H453.577V34.872ZM559.634 25.176V79.896C562.706 80.472 564.53 80.856 565.106 81.048C566.13 81.24 566.642 81.816 566.642 82.776V87H543.602V82.776C543.602 81.816 544.082 81.24 545.042 81.048L551.474 79.896V36.408C551.474 34.424 551.538 32.92 551.666 31.896L528.05 74.904C527.282 76.376 526.194 77.112 524.786 77.112H523.442C521.906 77.112 520.754 76.376 519.986 74.904L496.082 31.992C496.274 33.592 496.37 35.032 496.37 36.312V79.896L502.898 81.048C503.73 81.24 504.146 81.816 504.146 82.776V87H481.202V82.776C481.202 81.816 481.714 81.24 482.738 81.048L488.114 79.896V25.176C485.17 24.6 483.378 24.216 482.738 24.024C481.714 23.832 481.202 23.256 481.202 22.296V18.072H495.026C495.922 18.072 496.562 18.168 496.946 18.36C497.522 18.616 497.938 19.032 498.194 19.608L521.906 62.04C522.482 63.064 523.218 64.728 524.114 67.032C524.626 65.56 525.362 63.864 526.322 61.944L549.554 19.608C549.81 19.096 550.258 18.68 550.898 18.36C551.282 18.168 551.922 18.072 552.818 18.072H566.642V22.296C566.642 23.256 566.13 23.832 565.106 24.024L559.634 25.176Z" fill="#EDF6F9" fill-opacity="0.87"/>
<path d="M65.856 79.992H64.856V80.8118L65.6599 80.9726L65.856 79.992ZM71.616 81.144L71.8585 80.1739L71.8355 80.1681L71.8121 80.1634L71.616 81.144ZM72.768 87V88H73.768V87H72.768ZM49.536 87H48.536V88H49.536V87ZM51.072 81.048L51.2563 82.0309L51.2647 82.0293L51.072 81.048ZM56.448 79.992L56.6407 80.9733L57.448 80.8147V79.992H56.448ZM56.448 55.704H57.448V54.704H56.448V55.704ZM19.392 55.704V54.704H18.392V55.704H19.392ZM19.392 79.992H18.392V80.8051L19.188 80.971L19.392 79.992ZM26.304 87V88H27.304V87H26.304ZM3.168 87H2.168V88H3.168V87ZM4.608 81.048L4.41851 80.0661L4.41188 80.0674L4.608 81.048ZM10.08 79.992L10.2695 80.9739L11.08 80.8175V79.992H10.08ZM10.08 25.176H11.08V24.3562L10.2761 24.1954L10.08 25.176ZM4.32 24.024L4.07746 24.9941L4.10055 24.9999L4.12388 25.0046L4.32 24.024ZM3.168 18.264V17.264H2.168V18.264H3.168ZM26.304 18.264H27.304V17.264H26.304V18.264ZM25.344 24.024L25.6071 24.9888L25.6193 24.9854L25.6313 24.9818L25.344 24.024ZM19.488 25.176L19.3108 24.1918L18.488 24.3399V25.176H19.488ZM19.488 48.888H18.488V49.888H19.488V48.888ZM56.544 48.888V49.888H57.544V48.888H56.544ZM56.544 25.176H57.544V24.3562L56.7401 24.1954L56.544 25.176ZM50.784 24.024L50.5415 24.9941L50.5646 24.9999L50.5879 25.0046L50.784 24.024ZM49.632 18.264V17.264H48.632V18.264H49.632ZM72.864 18.264H73.864V17.264H72.864V18.264ZM71.424 24.12L71.6103 25.1025L71.6201 25.1006L71.424 24.12ZM65.856 25.176L65.6697 24.1935L64.856 24.3478V25.176H65.856ZM65.6599 80.9726L71.4199 82.1246L71.8121 80.1634L66.0521 79.0114L65.6599 80.9726ZM71.3735 82.1141C71.5532 82.1591 71.6138 82.2234 71.6479 82.2747C71.6956 82.3462 71.768 82.5156 71.768 82.872H73.768C73.768 82.2684 73.6484 81.6698 73.312 81.1653C72.9622 80.6406 72.4468 80.3209 71.8585 80.1739L71.3735 82.1141ZM71.768 82.872V87H73.768V82.872H71.768ZM72.768 86H49.536V88H72.768V86ZM50.536 87V82.872H48.536V87H50.536ZM50.536 82.872C50.536 82.5264 50.6201 82.3691 50.6849 82.2921C50.7515 82.2131 50.8999 82.0977 51.2563 82.0309L50.8877 80.0651C50.2201 80.1903 49.6005 80.4749 49.1551 81.0039C48.7079 81.5349 48.536 82.1936 48.536 82.872H50.536ZM51.2647 82.0293L56.6407 80.9733L56.2553 79.0107L50.8793 80.0667L51.2647 82.0293ZM57.448 79.992V55.704H55.448V79.992H57.448ZM56.448 54.704H19.392V56.704H56.448V54.704ZM18.392 55.704V79.992H20.392V55.704H18.392ZM19.188 80.971C21.4743 81.4473 23.1282 81.9121 24.1914 82.3551C24.7276 82.5785 25.0549 82.7728 25.2318 82.9202C25.4201 83.0771 25.304 83.0628 25.304 82.872H27.304C27.304 82.2012 26.8999 81.7069 26.5122 81.3838C26.1131 81.0512 25.5764 80.7655 24.9606 80.5089C23.7198 79.9919 21.9177 79.4967 19.596 79.013L19.188 80.971ZM25.304 82.872V87H27.304V82.872H25.304ZM26.304 86H3.168V88H26.304V86ZM4.168 87V82.872H2.168V87H4.168ZM4.168 82.872C4.168 82.5123 4.25135 82.3456 4.31288 82.2676C4.3702 82.195 4.49385 82.0906 4.80412 82.0286L4.41188 80.0674C3.76215 80.1974 3.1658 80.493 2.74312 81.0284C2.32465 81.5584 2.168 82.2077 2.168 82.872H4.168ZM4.79749 82.0299L10.2695 80.9739L9.89051 79.0101L4.41851 80.0661L4.79749 82.0299ZM11.08 79.992V25.176H9.08V79.992H11.08ZM10.2761 24.1954L4.51612 23.0434L4.12388 25.0046L9.88388 26.1566L10.2761 24.1954ZM4.56254 23.0539C4.38278 23.0089 4.32223 22.9446 4.28805 22.8933C4.24036 22.8218 4.168 22.6524 4.168 22.296H2.168C2.168 22.8996 2.28764 23.4982 2.62395 24.0027C2.97377 24.5274 3.48922 24.8471 4.07746 24.9941L4.56254 23.0539ZM4.168 22.296V18.264H2.168V22.296H4.168ZM3.168 19.264H26.304V17.264H3.168V19.264ZM25.304 18.264V22.296H27.304V18.264H25.304ZM25.304 22.296C25.304 22.6785 25.2381 22.8755 25.1898 22.9624C25.1584 23.0189 25.1309 23.0439 25.0567 23.0662L25.6313 24.9818C26.1971 24.8121 26.6496 24.4531 26.9382 23.9336C27.2099 23.4445 27.304 22.8735 27.304 22.296H25.304ZM25.0809 23.0592C24.4298 23.2368 22.5302 23.6123 19.3108 24.1918L19.6652 26.1602C22.8458 25.5877 24.8502 25.1952 25.6071 24.9888L25.0809 23.0592ZM18.488 25.176V48.888H20.488V25.176H18.488ZM19.488 49.888H56.544V47.888H19.488V49.888ZM57.544 48.888V25.176H55.544V48.888H57.544ZM56.7401 24.1954L50.9801 23.0434L50.5879 25.0046L56.3479 26.1566L56.7401 24.1954ZM51.0265 23.0539C50.8468 23.0089 50.7862 22.9446 50.7521 22.8933C50.7044 22.8218 50.632 22.6524 50.632 22.296H48.632C48.632 22.8996 48.7516 23.4982 49.088 24.0027C49.4378 24.5274 49.9532 24.8471 50.5415 24.9941L51.0265 23.0539ZM50.632 22.296V18.264H48.632V22.296H50.632ZM49.632 19.264H72.864V17.264H49.632V19.264ZM71.864 18.264V22.296H73.864V18.264H71.864ZM71.864 22.296C71.864 22.6557 71.7807 22.8224 71.7191 22.9004C71.6618 22.973 71.5382 23.0774 71.2279 23.1394L71.6201 25.1006C72.2699 24.9706 72.8662 24.675 73.2889 24.1396C73.7074 23.6096 73.864 22.9603 73.864 22.296H71.864ZM71.2377 23.1375L65.6697 24.1935L66.0423 26.1585L71.6103 25.1025L71.2377 23.1375ZM64.856 25.176V79.992H66.856V25.176H64.856ZM300.942 81.048V80.048L300.667 82.0095L300.942 81.048ZM301.998 81.72L301.217 82.3447L301.252 82.3879L301.291 82.4271L301.998 81.72ZM302.382 87V88H303.382V87H302.382ZM288.75 84.984L289.618 84.4879L289.591 84.4404L289.559 84.3962L288.75 84.984ZM270.894 60.408L270.075 60.9815L270.08 60.9887L270.085 60.9958L270.894 60.408ZM269.166 58.776L268.611 59.6081L268.62 59.6139L268.629 59.6197L269.166 58.776ZM260.142 58.2V57.2H259.142V58.2H260.142ZM260.142 79.896H259.142V80.7044L259.932 80.8738L260.142 79.896ZM265.518 81.048L265.793 80.0865L265.76 80.0772L265.728 80.0702L265.518 81.048ZM266.574 81.72L265.793 82.3447L265.863 82.4315L265.949 82.5009L266.574 81.72ZM267.054 86.904V87.904H268.054V86.904H267.054ZM243.918 86.904H242.918V87.904H243.918V86.904ZM244.302 81.72L245.009 82.4271L245.048 82.3879L245.083 82.3447L244.302 81.72ZM245.358 81.048L245.155 80.0687L245.119 80.0763L245.083 80.0865L245.358 81.048ZM250.926 79.896L251.129 80.8753L251.926 80.7103V79.896H250.926ZM250.926 25.176H251.926V24.3617L251.129 24.1967L250.926 25.176ZM245.358 24.024L245.083 24.9855L245.119 24.9957L245.155 25.0033L245.358 24.024ZM244.302 23.448L243.521 24.0727L243.556 24.1159L243.595 24.1551L244.302 23.448ZM243.918 18.072V17.072H242.918V18.072H243.918ZM280.686 19.416L280.956 18.453L280.951 18.4517L280.686 19.416ZM288.558 23.256L289.191 22.482L289.189 22.4799L288.558 23.256ZM293.166 29.304L292.243 29.6886V29.6886L293.166 29.304ZM293.454 43.992L294.39 44.3431L294.394 44.3337L293.454 43.992ZM290.094 49.752L289.321 49.1173L290.094 49.752ZM284.814 54.072L284.345 53.1889L284.338 53.1923L284.332 53.1958L284.814 54.072ZM277.71 56.856L277.508 55.8765L275.026 56.3876L277.189 57.7093L277.71 56.856ZM280.782 59.736L281.589 59.1458L281.587 59.1428L280.782 59.736ZM295.662 80.088L294.855 80.6782L295.095 81.0074L295.498 81.0744L295.662 80.088ZM301.038 81.048V82.048L301.281 80.0779L301.038 81.048ZM275.982 50.52L276.289 51.4718L276.298 51.4687L275.982 50.52ZM281.166 47.64L281.806 48.4082L281.813 48.4026L281.82 48.3968L281.166 47.64ZM281.358 28.632L281.976 27.8457L281.973 27.8437L281.358 28.632ZM260.046 25.56V24.56H259.046V25.56H260.046ZM260.046 51.48H259.046V52.48H260.046V51.48ZM300.667 82.0095C300.944 82.0886 301.108 82.2084 301.217 82.3447L302.779 81.0953C302.376 80.5916 301.836 80.2634 301.217 80.0865L300.667 82.0095ZM301.291 82.4271C301.317 82.4531 301.382 82.5265 301.382 82.776H303.382C303.382 82.1295 303.191 81.4989 302.705 81.0129L301.291 82.4271ZM301.382 82.776V87H303.382V82.776H301.382ZM302.382 86H292.398V88H302.382V86ZM292.398 86C291.06 86 290.192 85.4927 289.618 84.4879L287.882 85.4801C288.844 87.1633 290.408 88 292.398 88V86ZM289.559 84.3962L271.703 59.8202L270.085 60.9958L287.941 85.5718L289.559 84.3962ZM271.713 59.8345C271.185 59.0796 270.51 58.4461 269.703 57.9323L268.629 59.6197C269.23 60.0019 269.707 60.4564 270.075 60.9815L271.713 59.8345ZM269.721 57.944C268.886 57.3878 267.672 57.2 266.286 57.2V59.2C267.588 59.2 268.294 59.3962 268.611 59.6081L269.721 57.944ZM266.286 57.2H260.142V59.2H266.286V57.2ZM259.142 58.2V79.896H261.142V58.2H259.142ZM259.932 80.8738L265.308 82.0258L265.728 80.0702L260.352 78.9182L259.932 80.8738ZM265.243 82.0095C265.52 82.0886 265.684 82.2084 265.793 82.3447L267.355 81.0953C266.952 80.5916 266.412 80.2634 265.793 80.0865L265.243 82.0095ZM265.949 82.5009C266.008 82.5478 266.054 82.5994 266.054 82.776H268.054C268.054 82.0566 267.78 81.4042 267.199 80.9391L265.949 82.5009ZM266.054 82.776V86.904H268.054V82.776H266.054ZM267.054 85.904H243.918V87.904H267.054V85.904ZM244.918 86.904V82.776H242.918V86.904H244.918ZM244.918 82.776C244.918 82.5265 244.983 82.4531 245.009 82.4271L243.595 81.0129C243.109 81.4989 242.918 82.1295 242.918 82.776H244.918ZM245.083 82.3447C245.192 82.2084 245.356 82.0886 245.633 82.0095L245.083 80.0865C244.464 80.2634 243.924 80.5916 243.521 81.0953L245.083 82.3447ZM245.561 82.0273L251.129 80.8753L250.723 78.9167L245.155 80.0687L245.561 82.0273ZM251.926 79.896V25.176H249.926V79.896H251.926ZM251.129 24.1967L245.561 23.0447L245.155 25.0033L250.723 26.1553L251.129 24.1967ZM245.633 23.0625C245.302 22.9681 245.115 22.8471 245.009 22.7409L243.595 24.1551C244.001 24.5609 244.518 24.8239 245.083 24.9855L245.633 23.0625ZM245.083 22.8233C244.982 22.6975 244.918 22.5395 244.918 22.296H242.918C242.918 22.9485 243.11 23.5585 243.521 24.0727L245.083 22.8233ZM244.918 22.296V18.072H242.918V22.296H244.918ZM243.918 19.072H269.358V17.072H243.918V19.072ZM269.358 19.072C273.579 19.072 277.263 19.5133 280.421 20.3803L280.951 18.4517C277.581 17.5267 273.713 17.072 269.358 17.072V19.072ZM280.416 20.379C283.518 21.2473 286.009 22.4737 287.927 24.0321L289.189 22.4799C287.011 20.7103 284.254 19.3767 280.956 18.453L280.416 20.379ZM287.925 24.03C289.922 25.6639 291.352 27.5501 292.243 29.6886L294.089 28.9194C293.06 26.4499 291.418 24.3041 289.191 22.482L287.925 24.03ZM292.243 29.6886C293.143 31.8485 293.606 34.3696 293.606 37.272H295.606C295.606 34.1584 295.109 31.3675 294.089 28.9194L292.243 29.6886ZM293.606 37.272C293.606 39.5298 293.24 41.6536 292.514 43.6503L294.394 44.3337C295.204 42.1064 295.606 39.7502 295.606 37.272H293.606ZM292.518 43.6409C291.791 45.5799 290.728 47.405 289.321 49.1173L290.867 50.3867C292.404 48.515 293.581 46.5001 294.39 44.3431L292.518 43.6409ZM289.321 49.1173C287.933 50.8072 286.276 52.1628 284.345 53.1889L285.283 54.9551C287.448 53.8052 289.311 52.2808 290.867 50.3867L289.321 49.1173ZM284.332 53.1958C281.834 54.5698 279.561 55.4539 277.508 55.8765L277.912 57.8355C280.211 57.3621 282.674 56.3902 285.296 54.9482L284.332 53.1958ZM277.189 57.7093C278.218 58.3382 279.149 59.2051 279.977 60.3292L281.587 59.1428C280.623 57.8349 279.506 56.7818 278.231 56.0027L277.189 57.7093ZM279.975 60.3262L294.855 80.6782L296.469 79.4978L281.589 59.1458L279.975 60.3262ZM295.498 81.0744C298.594 81.5904 300.333 81.9025 300.795 82.0181L301.281 80.0779C300.719 79.9375 298.874 79.6096 295.826 79.1016L295.498 81.0744ZM301.038 80.048H300.942V82.048H301.038V80.048ZM268.782 52.48C271.668 52.48 274.178 52.1527 276.289 51.4717L275.675 49.5683C273.818 50.1673 271.528 50.48 268.782 50.48V52.48ZM276.298 51.4687C278.335 50.7897 280.173 49.769 281.806 48.4082L280.526 46.8718C279.087 48.071 277.469 48.9703 275.666 49.5713L276.298 51.4687ZM281.82 48.3968C283.333 47.0901 284.482 45.5634 285.249 43.8187L283.419 43.0133C282.778 44.4686 281.815 45.7579 280.512 46.8832L281.82 48.3968ZM285.249 43.8187C286.02 42.0683 286.39 40.0704 286.39 37.848H284.39C284.39 39.8496 284.056 41.5637 283.419 43.0133L285.249 43.8187ZM286.39 37.848C286.39 33.5709 284.95 30.1824 281.976 27.8457L280.74 29.4183C283.142 31.3056 284.39 34.0611 284.39 37.848H286.39ZM281.973 27.8437C279.094 25.5967 274.83 24.56 269.358 24.56V26.56C274.638 26.56 278.374 27.5712 280.743 29.4203L281.973 27.8437ZM269.358 24.56H260.046V26.56H269.358V24.56ZM259.046 25.56V51.48H261.046V25.56H259.046ZM260.046 52.48H268.782V50.48H260.046V52.48ZM328.858 87H327.858V88H328.858V87ZM329.242 81.72L330.023 82.3447L330.05 82.3108L330.074 82.2747L329.242 81.72ZM330.298 81.048L330.439 82.0379L330.463 82.0345L330.487 82.0299L330.298 81.048ZM335.77 79.992L335.959 80.9739L336.77 80.8175V79.992H335.77ZM335.77 25.176H336.77V24.3505L335.959 24.1941L335.77 25.176ZM330.298 24.12L330.487 23.1381L330.463 23.1335L330.439 23.13L330.298 24.12ZM329.242 23.544L328.41 24.0987L328.434 24.1348L328.461 24.1687L329.242 23.544ZM328.858 18.264V17.264H327.858V18.264H328.858ZM351.898 18.264H352.898V17.264H351.898V18.264ZM351.514 23.544L352.295 24.1687L352.322 24.1348L352.346 24.0987L351.514 23.544ZM350.458 24.12L350.316 23.13L350.292 23.1335L350.268 23.1381L350.458 24.12ZM344.986 25.176L344.796 24.1941L343.986 24.3505V25.176H344.986ZM344.986 79.128H343.986V80.128H344.986V79.128ZM369.754 79.128V80.128H370.691L370.752 79.1931L369.754 79.128ZM370.33 73.656L371.295 73.9191L371.311 73.8591L371.32 73.7974L370.33 73.656ZM377.05 72.024H378.05V71.024H377.05V72.024ZM377.05 87V88H378.05V87H377.05ZM329.858 87V82.872H327.858V87H329.858ZM329.858 82.872C329.858 82.6285 329.922 82.4705 330.023 82.3447L328.461 81.0953C328.05 81.6095 327.858 82.2195 327.858 82.872H329.858ZM330.074 82.2747C330.176 82.1221 330.279 82.0608 330.439 82.0379L330.156 80.0581C329.42 80.1632 328.82 80.5499 328.41 81.1653L330.074 82.2747ZM330.487 82.0299L335.959 80.9739L335.58 79.0101L330.108 80.0661L330.487 82.0299ZM336.77 79.992V25.176H334.77V79.992H336.77ZM335.959 24.1941L330.487 23.1381L330.108 25.1019L335.58 26.1579L335.959 24.1941ZM330.439 23.13C330.214 23.0979 330.103 23.0192 330.023 22.9193L328.461 24.1687C328.893 24.7088 329.485 25.014 330.156 25.1099L330.439 23.13ZM330.074 22.9893C329.924 22.7643 329.858 22.5403 329.858 22.296H327.858C327.858 22.9476 328.048 23.5557 328.41 24.0987L330.074 22.9893ZM329.858 22.296V18.264H327.858V22.296H329.858ZM328.858 19.264H351.898V17.264H328.858V19.264ZM350.898 18.264V22.296H352.898V18.264H350.898ZM350.898 22.296C350.898 22.5403 350.832 22.7643 350.682 22.9893L352.346 24.0987C352.708 23.5557 352.898 22.9476 352.898 22.296H350.898ZM350.733 22.9193C350.653 23.0192 350.541 23.0979 350.316 23.13L350.599 25.1099C351.27 25.014 351.863 24.7088 352.295 24.1687L350.733 22.9193ZM350.268 23.1381L344.796 24.1941L345.175 26.1579L350.647 25.1019L350.268 23.1381ZM343.986 25.176V79.128H345.986V25.176H343.986ZM344.986 80.128H369.754V78.128H344.986V80.128ZM370.752 79.1931C370.847 77.7274 370.942 76.5501 371.036 75.6567C371.133 74.7419 371.222 74.1839 371.295 73.9191L369.365 73.3929C369.245 73.8321 369.143 74.5381 369.047 75.4473C368.949 76.3779 368.852 77.5846 368.756 79.0629L370.752 79.1931ZM371.32 73.7974C371.345 73.6208 371.427 73.4517 371.642 73.2722L370.362 71.7358C369.809 72.1963 369.443 72.7952 369.34 73.5146L371.32 73.7974ZM371.642 73.2722C371.842 73.1059 372.061 73.024 372.346 73.024V71.024C371.606 71.024 370.93 71.2621 370.362 71.7358L371.642 73.2722ZM372.346 73.024H377.05V71.024H372.346V73.024ZM376.05 72.024V87H378.05V72.024H376.05ZM377.05 86H328.858V88H377.05V86ZM453.577 34.872V35.872H454.577V34.872H453.577ZM446.953 33.24L445.957 33.3305L445.961 33.3724L445.968 33.4138L446.953 33.24ZM446.281 25.848L447.277 25.7575L447.194 24.848H446.281V25.848ZM420.553 25.848V24.848H419.553V25.848H420.553ZM420.553 48.696H419.553V49.696H420.553V48.696ZM445.897 48.696H446.897V47.696H445.897V48.696ZM445.897 55.992V56.992H446.897V55.992H445.897ZM420.553 55.992V54.992H419.553V55.992H420.553ZM420.553 79.512H419.553V80.512H420.553V79.512ZM446.281 79.512V80.512H447.201L447.277 79.595L446.281 79.512ZM446.857 72.6L445.874 72.4157L445.864 72.466L445.86 72.517L446.857 72.6ZM453.577 71.064H454.577V70.064H453.577V71.064ZM453.577 87V88H454.577V87H453.577ZM404.233 87H403.233V88H404.233V87ZM405.673 81.144L405.483 80.1621L405.477 80.1634L405.673 81.144ZM411.145 80.088L411.334 81.0699L412.145 80.9135V80.088H411.145ZM411.145 25.272H412.145V24.4421L411.329 24.2891L411.145 25.272ZM405.673 24.12L405.989 23.1713L405.93 23.1516L405.869 23.1394L405.673 24.12ZM404.233 18.264V17.264H403.233V18.264H404.233ZM453.577 18.264H454.577V17.264H453.577V18.264ZM453.577 33.872H448.969V35.872H453.577V33.872ZM448.969 33.872C448.545 33.872 448.336 33.773 448.23 33.6868C448.129 33.6048 448.004 33.4405 447.938 33.0662L445.968 33.4138C446.094 34.1275 446.401 34.7792 446.972 35.2412C447.537 35.699 448.24 35.872 448.969 35.872V33.872ZM447.949 33.1495L447.277 25.7575L445.285 25.9385L445.957 33.3305L447.949 33.1495ZM446.281 24.848H420.553V26.848H446.281V24.848ZM419.553 25.848V48.696H421.553V25.848H419.553ZM420.553 49.696H445.897V47.696H420.553V49.696ZM444.897 48.696V55.992H446.897V48.696H444.897ZM445.897 54.992H420.553V56.992H445.897V54.992ZM419.553 55.992V79.512H421.553V55.992H419.553ZM420.553 80.512H446.281V78.512H420.553V80.512ZM447.277 79.595L447.853 72.683L445.86 72.517L445.284 79.429L447.277 79.595ZM447.84 72.7843C447.898 72.4707 448.011 72.3339 448.117 72.2567C448.242 72.1657 448.49 72.064 448.969 72.064V70.064C448.231 70.064 447.519 70.2183 446.941 70.6393C446.343 71.0741 446.007 71.7053 445.874 72.4157L447.84 72.7843ZM448.969 72.064H453.577V70.064H448.969V72.064ZM452.577 71.064V87H454.577V71.064H452.577ZM453.577 86H404.233V88H453.577V86ZM405.233 87V82.968H403.233V87H405.233ZM405.233 82.968C405.233 82.6083 405.316 82.4416 405.378 82.3636C405.435 82.291 405.559 82.1866 405.869 82.1246L405.477 80.1634C404.827 80.2934 404.231 80.589 403.808 81.1244C403.389 81.6544 403.233 82.3037 403.233 82.968H405.233ZM405.862 82.1259L411.334 81.0699L410.955 79.1061L405.483 80.1621L405.862 82.1259ZM412.145 80.088V25.272H410.145V80.088H412.145ZM411.329 24.2891C408.221 23.7063 406.483 23.336 405.989 23.1713L405.357 25.0687C406.014 25.288 407.925 25.6856 410.96 26.2549L411.329 24.2891ZM405.869 23.1394C405.559 23.0774 405.435 22.973 405.378 22.9004C405.316 22.8224 405.233 22.6557 405.233 22.296H403.233C403.233 22.9603 403.389 23.6096 403.808 24.1396C404.231 24.675 404.827 24.9706 405.477 25.1006L405.869 23.1394ZM405.233 22.296V18.264H403.233V22.296H405.233ZM404.233 19.264H453.577V17.264H404.233V19.264ZM452.577 18.264V34.872H454.577V18.264H452.577ZM559.633 25.176L559.427 24.1974L558.633 24.3646V25.176H559.633ZM559.633 79.896H558.633V80.7259L559.449 80.8789L559.633 79.896ZM565.106 81.048L564.789 81.9967L564.854 82.0183L564.921 82.0309L565.106 81.048ZM566.641 87V88H567.641V87H566.641ZM543.602 87H542.602V88H543.602V87ZM545.042 81.048L544.865 80.0637L544.855 80.0654L544.845 80.0674L545.042 81.048ZM551.474 79.896L551.65 80.8803L552.474 80.7328V79.896H551.474ZM551.666 31.896L552.658 32.02L550.789 31.4147L551.666 31.896ZM528.049 74.904L527.173 74.4227L527.168 74.432L527.163 74.4414L528.049 74.904ZM519.985 74.904L520.872 74.4414L520.866 74.4293L520.859 74.4174L519.985 74.904ZM496.082 31.992L496.955 31.5054L495.089 32.1111L496.082 31.992ZM496.37 79.896H495.37V80.735L496.196 80.8808L496.37 79.896ZM502.897 81.048L503.122 80.0736L503.097 80.0677L503.071 80.0632L502.897 81.048ZM504.146 87V88H505.146V87H504.146ZM481.202 87H480.202V88H481.202V87ZM482.737 81.048L482.922 82.0309L482.934 82.0285L482.947 82.0258L482.737 81.048ZM488.113 79.896L488.323 80.8738L489.113 80.7044V79.896H488.113ZM488.113 25.176H489.113V24.3527L488.306 24.1946L488.113 25.176ZM482.737 24.024L483.025 23.0662L482.974 23.0509L482.922 23.0411L482.737 24.024ZM481.202 18.072V17.072H480.202V18.072H481.202ZM496.945 18.36L496.498 19.2544L496.519 19.2646L496.539 19.2738L496.945 18.36ZM498.194 19.608L497.28 20.0141L497.298 20.0559L497.321 20.0958L498.194 19.608ZM521.906 62.04L521.033 62.5278L521.034 62.5303L521.906 62.04ZM524.114 67.032L523.182 67.3944L524.166 69.9255L525.058 67.3605L524.114 67.032ZM526.321 61.944L525.445 61.4629L525.436 61.4797L525.427 61.4968L526.321 61.944ZM549.554 19.608L550.43 20.0891L550.439 20.0723L550.448 20.0552L549.554 19.608ZM550.898 18.36L551.345 19.2544L550.898 18.36ZM566.641 18.072H567.641V17.072H566.641V18.072ZM565.106 24.024L564.921 23.0411L564.91 23.0432L564.899 23.0454L565.106 24.024ZM558.633 25.176V79.896H560.633V25.176H558.633ZM559.449 80.8789C562.557 81.4616 564.295 81.832 564.789 81.9967L565.422 80.0993C564.764 79.88 562.854 79.4823 559.818 78.9131L559.449 80.8789ZM564.921 82.0309C565.291 82.1003 565.446 82.2158 565.51 82.2884C565.566 82.3514 565.641 82.4784 565.641 82.776H567.641C567.641 82.1136 567.461 81.4726 567.005 80.9596C566.557 80.4562 565.944 80.1877 565.29 80.0651L564.921 82.0309ZM565.641 82.776V87H567.641V82.776H565.641ZM566.641 86H543.602V88H566.641V86ZM544.602 87V82.776H542.602V87H544.602ZM544.602 82.776C544.602 82.463 544.677 82.327 544.73 82.2642C544.784 82.1991 544.912 82.0936 545.238 82.0286L544.845 80.0674C544.211 80.1944 543.619 80.4729 543.193 80.9838C542.766 81.497 542.602 82.129 542.602 82.776H544.602ZM545.218 82.0323L551.65 80.8803L551.297 78.9117L544.865 80.0637L545.218 82.0323ZM552.474 79.896V36.408H550.474V79.896H552.474ZM552.474 36.408C552.474 34.4351 552.538 32.981 552.658 32.02L550.673 31.772C550.537 32.859 550.474 34.4129 550.474 36.408H552.474ZM550.789 31.4147L527.173 74.4227L528.926 75.3853L552.542 32.3773L550.789 31.4147ZM527.163 74.4414C526.53 75.6548 525.747 76.112 524.786 76.112V78.112C526.641 78.112 528.033 77.0972 528.936 75.3666L527.163 74.4414ZM524.786 76.112H523.442V78.112H524.786V76.112ZM523.442 76.112C522.84 76.112 522.36 75.9702 521.964 75.7173C521.564 75.4617 521.193 75.0556 520.872 74.4414L519.099 75.3666C519.547 76.2244 520.135 76.9223 520.887 77.4027C521.643 77.8858 522.507 78.112 523.442 78.112V76.112ZM520.859 74.4174L496.955 31.5054L495.208 32.4786L519.112 75.3906L520.859 74.4174ZM495.089 32.1111C495.277 33.6812 495.37 35.0804 495.37 36.312H497.37C497.37 34.9835 497.27 33.5028 497.074 31.8729L495.089 32.1111ZM495.37 36.312V79.896H497.37V36.312H495.37ZM496.196 80.8808L502.724 82.0328L503.071 80.0632L496.543 78.9112L496.196 80.8808ZM502.673 82.0224C502.903 82.0755 502.984 82.1557 503.023 82.2095C503.071 82.2764 503.146 82.4336 503.146 82.776H505.146C505.146 82.1584 505.012 81.5476 504.644 81.0385C504.267 80.5163 503.724 80.2125 503.122 80.0736L502.673 82.0224ZM503.146 82.776V87H505.146V82.776H503.146ZM504.146 86H481.202V88H504.146V86ZM482.202 87V82.776H480.202V87H482.202ZM482.202 82.776C482.202 82.4784 482.277 82.3514 482.333 82.2884C482.397 82.2158 482.552 82.1003 482.922 82.0309L482.553 80.0651C481.899 80.1877 481.286 80.4562 480.838 80.9596C480.382 81.4726 480.202 82.1136 480.202 82.776H482.202ZM482.947 82.0258L488.323 80.8738L487.904 78.9182L482.528 80.0702L482.947 82.0258ZM489.113 79.896V25.176H487.113V79.896H489.113ZM488.306 24.1946C485.34 23.6143 483.606 23.2406 483.025 23.0662L482.45 24.9818C483.149 25.1914 484.999 25.5856 487.921 26.1574L488.306 24.1946ZM482.922 23.0411C482.552 22.9717 482.397 22.8562 482.333 22.7836C482.277 22.7206 482.202 22.5936 482.202 22.296H480.202C480.202 22.9584 480.382 23.5994 480.838 24.1124C481.286 24.6158 481.899 24.8843 482.553 25.0069L482.922 23.0411ZM482.202 22.296V18.072H480.202V22.296H482.202ZM481.202 19.072H495.026V17.072H481.202V19.072ZM495.026 19.072C495.9 19.072 496.337 19.1737 496.498 19.2544L497.393 17.4656C496.786 17.1623 495.943 17.072 495.026 17.072V19.072ZM496.539 19.2738C496.889 19.4293 497.124 19.6644 497.28 20.0141L499.107 19.2019C498.751 18.3996 498.154 17.8027 497.352 17.4462L496.539 19.2738ZM497.321 20.0958L521.033 62.5278L522.778 61.5522L499.066 19.1202L497.321 20.0958ZM521.034 62.5303C521.573 63.489 522.288 65.0975 523.182 67.3944L525.046 66.6696C524.147 64.3586 523.39 62.639 522.777 61.5497L521.034 62.5303ZM525.058 67.3605C525.552 65.941 526.269 64.286 527.216 62.3912L525.427 61.4968C524.454 63.442 523.699 65.179 523.169 66.7035L525.058 67.3605ZM527.198 62.4251L550.43 20.0891L548.677 19.1269L525.445 61.4629L527.198 62.4251ZM550.448 20.0552C550.585 19.7807 550.849 19.5022 551.345 19.2544L550.45 17.4656C549.666 17.8578 549.034 18.4113 548.659 19.1608L550.448 20.0552ZM551.345 19.2544C551.506 19.1737 551.943 19.072 552.818 19.072V17.072C551.9 17.072 551.057 17.1623 550.45 17.4656L551.345 19.2544ZM552.818 19.072H566.641V17.072H552.818V19.072ZM565.641 18.072V22.296H567.641V18.072H565.641ZM565.641 22.296C565.641 22.5936 565.566 22.7206 565.51 22.7836C565.446 22.8562 565.291 22.9717 564.921 23.0411L565.29 25.0069C565.944 24.8843 566.557 24.6158 567.005 24.1124C567.461 23.5994 567.641 22.9584 567.641 22.296H565.641ZM564.899 23.0454L559.427 24.1974L559.84 26.1545L565.312 25.0025L564.899 23.0454Z" fill="black" mask="url(#path-3-outside-1_3762_21682)"/>
</svg>
