<svg width="38" height="35" viewBox="0 0 38 35" fill="none" xmlns="http://www.w3.org/2000/svg">
<path d="M26.5331 28.7445C25.9447 29.0037 25.5586 29.5962 25.5586 30.235C25.5586 30.7905 25.8344 31.2996 26.2941 31.5959C26.5607 31.7718 26.8641 31.8644 27.1767 31.8644C27.3973 31.8644 27.618 31.8181 27.8294 31.7255C33.4836 29.2074 37.1427 23.5695 37.1427 17.3577C37.1427 11.1458 33.4836 5.50791 27.8294 2.98983C27.333 2.76765 26.7538 2.81394 26.3033 3.11018C25.8436 3.41568 25.5678 3.92485 25.5678 4.48031C25.5678 5.11909 25.9447 5.70232 26.5423 5.97079C31.0197 7.97044 33.9157 12.4419 33.9157 17.3577C33.9157 22.2735 31.0197 26.7449 26.5423 28.7445H26.5331Z" fill="#006D77"/>
<path d="M30.5954 17.3758C30.5954 20.6901 28.4992 23.5044 25.5664 24.5505V10.2012C28.4992 11.2473 30.5954 14.0709 30.5954 17.3851V17.3758Z" fill="#006D77"/>
<path d="M19.9412 0.2122L7.94337 9.46056H2.29843C1.0297 9.46056 0 10.4974 0 11.775V23.2081C0 24.4857 1.0297 25.5225 2.29843 25.5225H7.94337L19.9412 34.7709C20.6583 35.3264 21.6972 34.8079 21.6972 33.9007V1.10093C21.6972 0.184426 20.6583 -0.324745 19.9412 0.230712V0.2122Z" fill="#006D77"/>
</svg>
